<?xml version="1.0" encoding="UTF-8"?>
<!DOCTYPE svg PUBLIC "-//W3C//DTD SVG 1.1//EN" "http://www.w3.org/Graphics/SVG/1.1/DTD/svg11.dtd">
<svg xmlns="http://www.w3.org/2000/svg" version="1.1" width="251px" height="86px" style="shape-rendering:geometricPrecision; text-rendering:geometricPrecision; image-rendering:optimizeQuality; fill-rule:evenodd; clip-rule:evenodd" xmlns:xlink="http://www.w3.org/1999/xlink">
<g><path style="opacity:0.868" fill="#767776" d="M 149.5,-0.5 C 154.5,-0.5 159.5,-0.5 164.5,-0.5C 164.5,1.83333 164.5,4.16667 164.5,6.5C 161.833,6.5 159.167,6.5 156.5,6.5C 156.5,9.16667 156.5,11.8333 156.5,14.5C 154.167,14.5 151.833,14.5 149.5,14.5C 149.5,9.5 149.5,4.5 149.5,-0.5 Z"/></g>
<g><path style="opacity:0.849" fill="#767776" d="M 235.5,-0.5 C 240.5,-0.5 245.5,-0.5 250.5,-0.5C 250.5,4.5 250.5,9.5 250.5,14.5C 248.167,14.5 245.833,14.5 243.5,14.5C 243.5,11.8333 243.5,9.16667 243.5,6.5C 240.833,6.5 238.167,6.5 235.5,6.5C 235.5,4.16667 235.5,1.83333 235.5,-0.5 Z"/></g>
<g><path style="opacity:0.931" fill="#767776" d="M 171.5,8.5 C 179.704,7.24856 186.538,9.5819 192,15.5C 192.862,17.087 193.529,18.7536 194,20.5C 194.667,34.1667 194.667,47.8333 194,61.5C 193.036,65.4685 190.869,68.6351 187.5,71C 193.391,74.7309 194.058,79.2309 189.5,84.5C 184.689,81.5225 180.689,77.6892 177.5,73C 168.303,73.8275 162.137,69.9942 159,61.5C 157.021,47.5056 157.021,33.5056 159,19.5C 160.891,13.1527 165.057,9.48606 171.5,8.5 Z M 173.5,18.5 C 177.182,17.7253 179.682,19.0586 181,22.5C 181.667,34.8333 181.667,47.1667 181,59.5C 178.49,64.2549 175.49,64.5883 172,60.5C 171.333,47.5 171.333,34.5 172,21.5C 172.513,20.4734 173.013,19.4734 173.5,18.5 Z"/></g>
<g><path style="opacity:0.933" fill="#767776" d="M 200.5,9.5 C 208.507,9.33362 216.507,9.50029 224.5,10C 229.012,10.5082 232.512,12.6749 235,16.5C 236.527,22.4149 236.861,28.4149 236,34.5C 234.75,37.9162 232.583,40.5828 229.5,42.5C 232.784,52.349 235.451,62.349 237.5,72.5C 232.901,72.8 228.401,72.4667 224,71.5C 221.672,62.5226 219.506,53.5226 217.5,44.5C 216.167,44.5 214.833,44.5 213.5,44.5C 213.5,53.8333 213.5,63.1667 213.5,72.5C 209.167,72.5 204.833,72.5 200.5,72.5C 200.5,51.5 200.5,30.5 200.5,9.5 Z M 213.5,18.5 C 224.041,19.068 227.041,24.2347 222.5,34C 219.649,35.2886 216.649,35.7886 213.5,35.5C 213.5,29.8333 213.5,24.1667 213.5,18.5 Z"/></g>
<g><path style="opacity:0.906" fill="#767776" d="M -0.5,17.5 C 8.16667,17.5 16.8333,17.5 25.5,17.5C 25.5,20.5 25.5,23.5 25.5,26.5C 23.1667,26.5 20.8333,26.5 18.5,26.5C 18.5,40.8333 18.5,55.1667 18.5,69.5C 14.8333,69.5 11.1667,69.5 7.5,69.5C 7.5,55.1667 7.5,40.8333 7.5,26.5C 4.83333,26.5 2.16667,26.5 -0.5,26.5C -0.5,23.5 -0.5,20.5 -0.5,17.5 Z"/></g>
<g><path style="opacity:0.903" fill="#767776" d="M 26.5,17.5 C 34.1667,17.5 41.8333,17.5 49.5,17.5C 49.5,20.1667 49.5,22.8333 49.5,25.5C 45.5,25.5 41.5,25.5 37.5,25.5C 37.5,29.8333 37.5,34.1667 37.5,38.5C 40.5,38.5 43.5,38.5 46.5,38.5C 46.5,41.1667 46.5,43.8333 46.5,46.5C 43.5,46.5 40.5,46.5 37.5,46.5C 37.5,51.5 37.5,56.5 37.5,61.5C 41.5,61.5 45.5,61.5 49.5,61.5C 49.5,64.1667 49.5,66.8333 49.5,69.5C 41.8333,69.5 34.1667,69.5 26.5,69.5C 26.5,52.1667 26.5,34.8333 26.5,17.5 Z"/></g>
<g><path style="opacity:0.899" fill="#767776" d="M 51.5,17.5 C 54.2469,17.1866 56.9135,17.52 59.5,18.5C 62.764,25.7922 65.9307,33.1255 69,40.5C 69.4997,32.8406 69.6664,25.1739 69.5,17.5C 72.8333,17.5 76.1667,17.5 79.5,17.5C 79.5,34.8333 79.5,52.1667 79.5,69.5C 76.5525,69.7771 73.7191,69.4438 71,68.5C 67.8624,60.087 64.5291,51.7536 61,43.5C 60.5002,52.1603 60.3336,60.8269 60.5,69.5C 57.5,69.5 54.5,69.5 51.5,69.5C 51.5,52.1667 51.5,34.8333 51.5,17.5 Z"/></g>
<g><path style="opacity:0.905" fill="#767776" d="M 92.5,17.5 C 107.166,14.8381 113.832,20.8381 112.5,35.5C 109.167,35.5 105.833,35.5 102.5,35.5C 102.649,32.3926 102.149,29.3926 101,26.5C 98.7328,25.0652 96.7328,25.3985 95,27.5C 94.1895,38.5466 94.3561,49.5466 95.5,60.5C 97.9492,61.9097 100.116,61.5763 102,59.5C 102.498,56.1832 102.665,52.8499 102.5,49.5C 101.167,49.5 99.8333,49.5 98.5,49.5C 98.5,47.1667 98.5,44.8333 98.5,42.5C 103.167,42.5 107.833,42.5 112.5,42.5C 112.5,51.5 112.5,60.5 112.5,69.5C 110.167,69.5 107.833,69.5 105.5,69.5C 105.557,65.8669 104.557,65.7002 102.5,69C 94.0926,71.863 87.9259,69.363 84,61.5C 82,49.8333 82,38.1667 84,26.5C 85.3513,21.9848 88.1846,18.9848 92.5,17.5 Z"/></g>
<g><path style="opacity:0.908" fill="#767776" d="M 125.5,17.5 C 131.105,16.9081 136.439,17.7415 141.5,20C 144.181,22.194 145.681,25.0273 146,28.5C 146.909,39.892 146.576,51.2253 145,62.5C 142.016,67.9953 137.349,70.6619 131,70.5C 121.344,70.1769 116.344,65.1769 116,55.5C 115.169,45.4547 115.502,35.4547 117,25.5C 118.445,21.218 121.278,18.5513 125.5,17.5 Z M 129.5,25.5 C 132.86,24.7904 134.693,26.1238 135,29.5C 135.667,39.1667 135.667,48.8333 135,58.5C 133.419,61.5534 131.086,62.22 128,60.5C 127.333,49.5 127.333,38.5 128,27.5C 128.717,26.9558 129.217,26.2891 129.5,25.5 Z"/></g>
<g><path style="opacity:0.864" fill="#767776" d="M 164.5,85.5 C 159.5,85.5 154.5,85.5 149.5,85.5C 149.5,80.5 149.5,75.5 149.5,70.5C 151.833,70.5 154.167,70.5 156.5,70.5C 156.5,73.1667 156.5,75.8333 156.5,78.5C 159.167,78.5 161.833,78.5 164.5,78.5C 164.5,80.8333 164.5,83.1667 164.5,85.5 Z"/></g>
<g><path style="opacity:0.843" fill="#767776" d="M 250.5,70.5 C 250.5,75.5 250.5,80.5 250.5,85.5C 245.5,85.5 240.5,85.5 235.5,85.5C 235.5,83.1667 235.5,80.8333 235.5,78.5C 238.167,78.5 240.833,78.5 243.5,78.5C 243.5,75.8333 243.5,73.1667 243.5,70.5C 245.833,70.5 248.167,70.5 250.5,70.5 Z"/></g>
</svg>
